<svg xmlns="http://www.w3.org/2000/svg" width="100" height="100" viewBox="0 0 100 100">
  <g fill="none" fill-rule="evenodd" stroke="#453C82" stroke-width="4" transform="translate(3 16)">
    <line x1="66" x2="66" y2="58.8"/>
    <path fill="#C1A4E9" d="M65.9996,18.8 C71.8006,18.8 76.6006,23.6 76.6006,29.4 C76.6006,35.2 71.8006,40 65.9996,40"/>
    <line x1="84" x2="94" y1="29.2" y2="29.2"/>
    <path fill="#E8DFF7" stroke-linecap="square" stroke-linejoin="bevel" d="M28.0001,41.0002 C28.0001,41.0002 47.0001,35.4002 66.0001,54.4002 L66.0001,4.4002 C47.0001,23.4002 28.0001,18.4002 28.0001,18.4002 L28.0001,41.0002 Z"/>
    <path fill="#E8DFF7" d="M24.0001,41.1999 C23.4001,45.3999 23.8001,50.3999 28.2001,57.7999 C30.4001,61.1999 29.0001,65.7999 25.2001,66.9999 C22.2001,67.9999 18.8001,66.1999 17.8001,63.1999 L11.4001,41.1999"/>
    <path fill="#C1A4E9" d="M28.0001,41.1999 L12.0001,41.1999 C5.4001,41.1999 0.0001,35.7999 0.0001,29.1999 C0.0001,22.5999 5.4001,17.1999 12.0001,17.1999 L28.0001,17.1999 L28.0001,41.1999 Z"/>
    <line x1="79.8" x2="86.999" y1="19.4" y2="12.2"/>
    <line x1="79.8" x2="86.999" y1="39" y2="46.2"/>
  </g>
</svg>
