<svg xmlns="http://www.w3.org/2000/svg" width="90" height="96" viewBox="0 0 90 96">
  <g fill="none" fill-rule="evenodd" stroke="#453C82" stroke-width="4" transform="translate(2 2)">
    <path fill="#C1A4E9" d="M51 8C51 9.4 50.6 10.8 50 12 48.6 14.4 46 16 43 16 40 16 37.4 14.4 36 12 35.4 10.8 35 9.4 35 8 35 3.6 38.6 0 43 0 47.4 0 51 3.6 51 8zM16 31C14.4 34 11.2 35.4 8 35 7 34.8 6 34.4 5 34 1.2 31.8-.2 27 2 23 4.2 19.2 9 17.8 13 20 14.2 20.6 15 21.6 15.6 22.6 17.2 25 17.4 28.4 16 31zM15.6 69.4C15 70.4 14 71.4 13 72 9.2 74.2 4.2 73 2 69-.2 65.2 1.2 60.2 5 58 6 57.4 6.8 57.2 7.8 57 11 56.6 14.2 58 15.8 61 17.4 63.6 17.2 67 15.6 69.4zM51 84C51 88.4 47.4 92 43 92 38.6 92 35 88.4 35 84 35 82.6 35.4 81.2 36 80 37.4 77.6 40 76 43 76 46 76 48.6 77.6 50 80 50.6 81.2 51 82.6 51 84zM84 69C81.8 72.8 77 74.2 73 72 71.8 71.4 71 70.4 70.4 69.4 68.8 67 68.6 63.8 70.2 61 71.8 58 75 56.6 78.2 57 79.2 57.2 80.2 57.4 81 58 84.8 60.2 86.2 65.2 84 69zM81 34C80 34.6 79.2 34.8 78.2 35 75 35.4 71.8 34 70.2 31 68.6 28.4 68.8 25 70.4 22.6 71 21.6 72 20.6 73 20 76.8 17.8 81.8 19 84 23 86.2 26.8 84.8 31.8 81 34z"/>
    <path fill="#E8DFF7" d="M78,35 L78,57.2 C74.8,56.8 71.6,58.2 70,61.2 C68.4,63.8 68.6,67.2 70.2,69.6 L50,80 C48.6,77.6 46,76 43,76 C40,76 37.4,77.6 36,80 L15.6,69.2 C17.2,66.8 17.4,63.6 15.8,60.8 C14.2,57.8 11,56.4 7.8,56.8 L7.8,35 C11,35.4 14.2,34 15.8,31 C17.4,28.4 17.2,25 15.6,22.6 L36,12 C37.4,14.4 40,16 43,16 C46,16 48.6,14.4 50,12 L70.4,22.8 C68.8,25.2 68.6,28.4 70.2,31.2 C71.8,34 75,35.4 78,35 Z"/>
    <path fill="#C1A4E9" d="M43,64 C22.6,56.4 25,36 25,36 C38.2,32.6 43,28 43,28 C43,28 47.8,32.4 61,36 C61,36 63.4,56.4 43,64 Z"/>
  </g>
</svg>
