<svg version="1.1" id="Layer_1" xmlns="http://www.w3.org/2000/svg" x="0" y="0" viewBox="0 0 15 15" xml:space="preserve"><path d="M14.4 13.2l-3-2.9c.9-1.1 1.3-2.4 1.3-3.8C12.7 3.1 9.9.3 6.5.4 3.1.3.3 3 .3 6.4s2.8 6.2 6.2 6.1c1.4 0 2.7-.5 3.8-1.3l3 3c.1.1.3.2.5.2s.4-.1.5-.2c.1-.1.2-.3.2-.5.1-.2.1-.4-.1-.5zM6.5 1.7c2.6 0 4.7 2.1 4.8 4.7 0 1.3-.5 2.5-1.4 3.3-.9.9-2.1 1.4-3.4 1.3-1.3 0-2.5-.5-3.4-1.3-.8-.8-1.4-2-1.4-3.3 0-1.3.5-2.5 1.4-3.3s2.2-1.4 3.4-1.4z" fill="#595977" stroke="#595977" stroke-width=".25" stroke-miterlimit="10"/></svg>