<svg version="1.1" id="Layer_1" xmlns="http://www.w3.org/2000/svg" x="0" y="0" viewBox="0 0 30 30" xml:space="preserve"><style type="text/css">@keyframes flicker{0%{fill-opacity:.3}}</style><path d="M15 9c-3.3 0-6 2.7-6 6s2.7 6 6 6 6-2.7 6-6-2.7-6-6-6zm-2.7 3.4c0-.4.4-.8.8-.8s.8.4.8.8c0 .3-.1 1-.4 1.5.8-.6 1.8-1 3-1 1.3 0 2.6.5 3.4 1.4L18.2 16c-.4-.4-1.1-.7-1.7-.7-1.3 0-2.4 1.1-2.4 2.4h-2.4c0-1.1.4-2.1 1-2.9-.5.2-1.3.4-1.5.4-.4 0-.8-.4-.8-.8s.4-.8.8-.8c.3 0 1 .1 1.5.4-.3-.6-.4-1.3-.4-1.6z" style="animation:flicker 2s ease alternate infinite"/><path d="M6 0H4.3L3.2 1.1A2.456 2.456 0 000 .9V6c3.3 0 6-2.7 6-6zm24 6V.9c-.6.4-.9 1.1-.9 1.9h-2.4c0-1 .3-2 .9-2.8h-.3c-.5.1-1 .2-1.2.2-.2 0-.4-.1-.6-.2H24c0 3.3 2.7 6 6 6zm-2.4 23.8c-.1 0-.2.1-.4.1h.3s.1 0 .1-.1c0 .1 0 0 0 0zm-2.1-.4c0-.4.4-.8.8-.8.3 0 1 .1 1.5.4-.2-.5-.4-1.2-.4-1.5 0-.4.4-.8.8-.8s.8.4.8.8c0 .3-.1 1-.4 1.5.4-.3.9-.6 1.4-.8V24c-3.3 0-6 2.7-6 6h1.5c.1-.2 0-.4 0-.6zM0 24v4.2c.5-.2 1-.2 1.5-.2 1.3 0 2.6.5 3.4 1.4l-.5.6H6c0-3.3-2.7-6-6-6z" style="animation:flicker 2s ease alternate infinite;animation-delay:3s" fill-opacity=".2"/></svg>