<svg xmlns="http://www.w3.org/2000/svg" width="100" height="100" viewBox="0 0 100 100">
  <g fill="none" fill-rule="evenodd" transform="translate(2 2)">
    <rect width="92" height="67" x="2" y="2" fill="#E8DFF7"/>
    <g transform="translate(10 10)">
      <rect width="8" height="8" fill="#C1A4E9"/>
      <rect width="8" height="8" x="34" fill="#C1A4E9"/>
      <rect width="8" height="8" x="68" fill="#C1A4E9"/>
      <rect width="8" height="8" x="63" y="34" fill="#C1A4E9"/>
      <rect width="8" height="8" x="4" y="34" fill="#C1A4E9"/>
      <polygon fill="#C1A4E9" points="38 16 41.729 16 53.295 42 45.648 48.998 42 58 34.271 58 29.564 47.964 22 42 34 16"/>
      <circle cx="38" cy="34" r="2" fill="#E8DFF7"/>
    </g>
    <rect width="90" height="11" x="3" y="69" fill="#C1A4E9"/>
    <rect width="8" height="8" x="11" y="10" fill="#C1A4E9"/>
    <polygon fill="#453C82" fill-rule="nonzero" points="50 26 50 41 46 41 46 26"/>
    <g fill="#453C82" fill-rule="nonzero" transform="translate(29 24)">
      <path d="M19 0L23.4446149 0 37.6980875 28.9523664 35.7403648 29.8636591C35.6718514 29.8979818 35.5774944 29.9465542 35.4596928 30.0093617 35.1162561 30.1924696 34.7293171 30.4151721 34.3099979 30.6772466 33.1041816 31.4308818 31.8964638 32.3409834 30.7747696 33.4025868 27.7436391 36.2713354 25.9202194 39.6610831 25.8057336 43.603876L25.8 44 21.8 44C21.8 38.6623549 24.1573986 34.1580397 28.0252304 30.4974132 29.187498 29.3974099 30.4178881 28.4422041 31.6580674 27.6263763L32.1900021 27.2852534 32.365 27.176 20.955 4 19 4 19 0zM19 0L19 4 17.044 4 5.634 27.176 5.80999788 27.2852534C7.05178363 28.0613695 8.29211353 28.9760894 9.47265425 30.0348326L9.97476965 30.4974132C13.7351616 34.0563556 16.067868 38.4127661 16.1945612 43.5571255L16.2 44 12.2 44C12.2 39.8876451 10.3573986 36.3669603 7.22523035 33.4025868 6.10353622 32.3409834 4.8958184 31.4308818 3.69000212 30.6772466 3.35454677 30.467587 3.03981473 30.2831255 2.75150054 30.123976L2.33667429 29.9027312 2.15777739 29.8140179.301912473 28.9523664 14.5553851 0 19 0z"/>
      <path d="M19,14.8 C16.1281193,14.8 13.8,17.1281193 13.8,20 C13.8,22.8718807 16.1281193,25.2 19,25.2 C21.8718807,25.2 24.2,22.8718807 24.2,20 C24.2,17.1281193 21.8718807,14.8 19,14.8 Z M19,18.8 C19.6627417,18.8 20.2,19.3372583 20.2,20 C20.2,20.6627417 19.6627417,21.2 19,21.2 C18.3372583,21.2 17.8,20.6627417 17.8,20 C17.8,19.3372583 18.3372583,18.8 19,18.8 Z"/>
    </g>
    <path fill="#453C82" fill-rule="nonzero" d="M96,0 L0,0 L0,82 L96,82 L96,0 Z M92,4 L92,78 L4,78 L4,4 L92,4 Z"/>
    <polygon fill="#453C82" fill-rule="nonzero" points="34 80 34 94 30 94 30 80"/>
    <polygon fill="#453C82" fill-rule="nonzero" points="66 80 66 94 62 94 62 80"/>
    <polygon fill="#453C82" fill-rule="nonzero" points="74 92 74 96 22 96 22 92"/>
    <polygon fill="#453C82" fill-rule="nonzero" points="94 66 94 70 2 70 2 66"/>
    <g fill="#453C82" fill-rule="nonzero" transform="translate(12 8)">
      <path d="M72 34L60 34 60 46 72 46 72 34zM68 38L68 42 64 42 64 38 68 38zM42 0L30 0 30 12 42 12 42 0zM38 4L38 8 34 8 34 4 38 4zM12 34L0 34 0 46 12 46 12 34zM8 38L8 42 4 42 4 38 8 38z"/>
      <path d="M31.7285624 4.21850521L32.2714376 8.18149479C18.6324465 10.0498497 8.21022179 21.7294797 8.00314119 35.5796416L8 36 4 36C4 20.118055 15.7417794 6.6476995 31.2572497 4.28664295L31.7285624 4.21850521zM40.2714376 4.21850521C55.8623311 6.35424404 67.7600195 19.6871375 67.9964142 35.5194761L68 36 64 36C64 22.1067686 53.7141652 10.3068898 40.1408733 8.24110688L39.7285624 8.18149479 40.2714376 4.21850521z"/>
    </g>
    <polygon fill="#453C82" fill-rule="nonzero" points="78 12 78 16 52 16 52 12"/>
    <path fill="#453C82" fill-rule="nonzero" d="M88,8 L76,8 L76,20 L88,20 L88,8 Z M84,12 L84,16 L80,16 L80,12 L84,12 Z"/>
    <polygon fill="#453C82" fill-rule="nonzero" points="44 12 44 16 18 16 18 12"/>
    <path fill="#453C82" fill-rule="nonzero" d="M20,8 L8,8 L8,20 L20,20 L20,8 Z M15.999,12 L15.999,16 L11.999,16 L11.999,12 L15.999,12 Z" transform="rotate(180 14 14)"/>
  </g>
</svg>
